:SAMPLES-PER-SECOND 30
:FULLY-SPECIFIED
:DEGREES
390
root  13.7799 40.6032 7.97385 15.1477 80.0054 17.9711
RightUpLeg  -4.68421 -9.46933 -9.60318
RightLeg  11.6363 1.77962 0.675381
RightFoot  -1.95567 -0.19423 2.23825
RightToes  0.000481921 0.542163 -0.142578
Spine  6.84915 -3.72108 -9.46873
Spine1  0.0684639 -6.00836 9.34603
HEad  24.1164 25.6528 0.120351
LeftShoulder1  7.24693 -12.1845 -39.946
LeftArm  -15.044 24.1242 -27.9352
LeftForeArm  178.428 -44.6505 -170.468
LeftHand  -0.25398 0.0180481 5.50724
RightShoulder  3.36398 5.49426 31.4318
RightArm  11.2037 -7.30875 40.1909
RightForeArm  155.007 60.3444 161.202
RightHand  -0.795852 1.33191 -13.8651
LeftUpLeg  4.28508 6.2746 3.06419
LeftLeg  1.88879 26.784 -4.14261
LeftFoot  -0.709693 0.281536 -2.98013
LeftToes  1.06247e-005 4.65869e-005 -8.65511e-006
391
root  13.8076 40.6288 7.98886 17.613 80.9926 19.9464
RightUpLeg  -4.68733 -10.0249 -9.73947
RightLeg  11.2158 1.22616 0.78611
RightFoot  -1.95297 -0.201397 2.32138
RightToes  0.000481921 0.542163 -0.142578
Spine  6.3698 -3.7074 -9.33138
Spine1  -0.471185 -5.90804 9.50492
HEad  23.7028 24.6487 -0.452117
LeftShoulder1  7.31127 -12.1577 -40.411
LeftArm  -14.3603 23.4608 -26.9316
LeftForeArm  177.904 -44.2573 -170.562
LeftHand  -0.25398 0.0180481 5.50724
RightShoulder  3.34482 5.47859 31.2826
RightArm  11.0348 -8.50307 40.8449
RightForeArm  154.03 59.4655 161.729
RightHand  -0.864757 1.44213 -14.8198
LeftUpLeg  3.94678 5.94442 2.88601
LeftLeg  1.18749 26.143 -4.24166
LeftFoot  -0.378819 0.293008 -3.03046
LeftToes  1.06247e-005 4.65869e-005 -8.65511e-006
392
root  13.8038 40.631 7.98285 18.1318 81.514 20.2888
RightUpLeg  -4.65085 -10.2372 -9.70582
RightLeg  11.0395 0.919176 0.875339
RightFoot  -1.95393 -0.201786 2.29557
RightToes  0.000481921 0.542163 -0.142578
Spine  6.75369 -3.46953 -8.80458
Spine1  -1.23327 -5.54189 9.21051
HEad  22.7406 23.7744 -1.05333
LeftShoulder1  7.17219 -11.7927 -40.6017
LeftArm  -13.423 23.6568 -27.1954
LeftForeArm  177.339 -43.7557 -170.686
LeftHand  -0.25398 0.0180481 5.50724
RightShoulder  3.35293 5.45537 31.4707
RightArm  10.9259 -9.6944 41.3454
RightForeArm  154.954 58.8168 162.244
RightHand  -0.881991 1.60061 -14.7817
LeftUpLeg  3.47859 6.01349 3.023
LeftLeg  1.67745 25.5962 -4.07499
LeftFoot  -0.562698 0.29018 -3.04041
LeftToes  1.06247e-005 4.65869e-005 -8.65511e-006
393
root  13.7811 40.6145 7.96223 17.0587 81.409 19.3093
RightUpLeg  -4.70585 -10.1263 -9.58979
RightLeg  11.2032 0.984976 0.858381
RightFoot  -1.95779 -0.196924 2.18709
RightToes  0.000481921 0.542163 -0.142578
Spine  7.35157 -3.05857 -7.50508
Spine1  -1.69105 -4.81275 7.70923
HEad  21.7181 22.8662 -1.26521
LeftShoulder1  7.10497 -11.5696 -40.8337
LeftArm  -12.5905 24.4939 -27.9099
LeftForeArm  178.782 -43.544 -170.843
LeftHand  -0.25398 0.0180481 5.50724
RightShoulder  3.4468 5.53457 32.1833
RightArm  10.8438 -10.744 41.4967
RightForeArm  156.208 58.6176 162.482
RightHand  -0.877881 1.73407 -14.4523
LeftUpLeg  3.17932 6.30174 3.25097
LeftLeg  2.61441 25.4465 -3.88935
LeftFoot  -0.994727 0.279161 -3.01895
LeftToes  1.06247e-005 4.65869e-005 -8.65511e-006
394
root  13.7534 40.5965 7.92791 15.4837 80.9068 17.8358
RightUpLeg  -4.88715 -9.94889 -9.48312
RightLeg  11.3985 1.36904 0.861278
RightFoot  -1.84875 -0.191989 2.07881
RightToes  0.000481921 0.542163 -0.142578
Spine  7.66664 -2.68345 -6.06117
Spine1  -1.73362 -4.07033 5.86639
HEad  21.24 22.2504 -1.15453
LeftShoulder1  7.28935 -11.7407 -41.4716
LeftArm  -12.8689 26.2033 -28.807
LeftForeArm  178.561 -43.5866 -170.816
LeftHand  -0.25398 0.0180481 5.50724
RightShoulder  3.57336 5.68884 32.9229
RightArm  11.1276 -11.2063 41.4445
RightForeArm  155.837 59.02 162.186
RightHand  -0.908268 1.85424 -14.7061
LeftUpLeg  3.03507 6.59007 3.42634
LeftLeg  3.32909 25.6872 -3.81134
LeftFoot  -1.38794 0.272387 -3.02594
LeftToes  1.06247e-005 4.65869e-005 -8.65511e-006
